<?xml version="1.0" standalone="no"?>
<!DOCTYPE svg PUBLIC "-//W3C//DTD SVG 20010904//EN"
 "http://www.w3.org/TR/2001/REC-SVG-20010904/DTD/svg10.dtd">
<svg version="1.0" xmlns="http://www.w3.org/2000/svg"
 width="16.000000pt" height="16.000000pt" viewBox="0 0 16.000000 16.000000"
 preserveAspectRatio="xMidYMid meet">
<metadata>
Created by potrace 1.11, written by Peter Selinger 2001-2013
</metadata>
<g transform="translate(0.000000,16.000000) scale(0.005333,-0.005333)"
fill="#000000" stroke="none">
<path d="M1022 2563 c263 -2 693 -2 955 0 263 1 48 2 -477 2 -525 0 -740 -1
-478 -2z"/>
<path d="M315 2315 c-22 -21 -25 -33 -25 -95 0 -62 3 -74 25 -95 20 -21 34
-25 85 -25 l60 0 0 -45 0 -45 -85 0 -85 0 0 -40 0 -40 94 0 c79 0 97 3 120 21
24 19 26 26 26 100 0 103 -14 119 -100 119 l-60 0 0 50 0 50 80 0 80 0 0 35 0
35 -95 0 c-88 0 -98 -2 -120 -25z"/>
<path d="M662 2333 c-22 -9 -42 -60 -42 -108 l0 -45 40 0 40 0 0 45 0 45 85 0
85 0 0 35 0 35 -97 -1 c-54 0 -104 -3 -111 -6z"/>
<path d="M985 2315 c-24 -24 -25 -28 -25 -180 0 -152 1 -156 25 -180 23 -24
31 -25 134 -25 102 0 112 2 138 24 l28 24 0 155 c0 151 -1 156 -24 181 -24 25
-29 26 -138 26 -108 0 -115 -1 -138 -25z m225 -175 l0 -130 -90 0 -90 0 0 123
c0 68 3 127 7 130 3 4 44 7 90 7 l83 0 0 -130z"/>
<path d="M1380 2260 l0 -80 35 0 c35 0 35 0 35 45 l0 45 45 0 45 0 0 -50 0
-50 -40 0 c-39 0 -40 -1 -40 -35 0 -21 17 -69 42 -120 42 -84 43 -85 80 -85
l38 0 -40 80 c-46 91 -45 90 -25 90 9 0 27 11 40 25 22 21 25 33 25 95 0 62
-3 74 -25 95 -22 23 -32 25 -120 25 l-95 0 0 -80z"/>
<path d="M1710 2135 l0 -205 40 0 40 0 0 205 0 205 -40 0 -40 0 0 -205z"/>
<path d="M1880 2135 l0 -205 35 0 35 0 0 165 c0 91 3 165 8 165 4 0 44 -74 90
-165 96 -194 112 -206 112 -85 0 70 -2 80 -18 80 -12 0 -35 36 -80 125 l-62
125 -60 0 -60 0 0 -205z"/>
<path d="M2210 2135 l0 -205 40 0 40 0 0 205 0 205 -40 0 -40 0 0 -205z"/>
<path d="M2405 2315 c-24 -24 -25 -28 -25 -180 0 -152 1 -156 25 -180 23 -24
31 -25 133 -25 94 0 113 3 134 20 14 11 28 29 31 40 5 19 1 20 -124 20 l-130
0 3 128 3 127 128 3 127 3 0 34 0 35 -140 0 c-136 0 -142 -1 -165 -25z"/>
<path d="M2550 2135 c0 -34 1 -35 40 -35 33 0 40 -3 40 -20 0 -17 7 -20 40
-20 l40 0 0 55 0 55 -80 0 -80 0 0 -35z"/>
<path d="M622 2033 c4 -46 10 -61 32 -80 24 -21 37 -23 122 -23 l94 0 0 40 0
40 -85 0 -85 0 0 40 0 40 -41 0 -41 0 4 -57z"/>
<path d="M1380 2010 l0 -80 35 0 35 0 0 80 0 80 -35 0 -35 0 0 -80z"/>
<path d="M2567 1792 c-23 -25 -37 -67 -30 -91 5 -20 5 -20 -48 -4 -105 31
-136 17 -167 -76 -28 -81 -8 -122 52 -107 17 4 28 17 36 41 10 31 14 34 38 29
41 -10 41 -11 28 -56 -11 -36 -21 -48 -62 -70 -48 -27 -53 -28 -216 -28 l-168
0 0 165 0 165 -285 0 -285 0 0 -150 0 -150 -125 0 -125 0 0 165 0 165 -280 0
-280 0 0 -107 c-1 -106 -1 -107 -18 -80 -19 31 -40 40 -75 32 -36 -10 -47 -41
-31 -95 7 -24 11 -46 8 -49 -10 -10 -93 -39 -98 -34 -2 3 -2 20 1 39 5 29 1
38 -31 70 -32 32 -41 36 -73 31 -85 -14 -121 -102 -67 -166 l26 -31 -24 -9
c-13 -4 -40 -14 -60 -21 -21 -8 -49 -25 -64 -38 -23 -22 -26 -31 -22 -72 3
-27 16 -70 29 -96 19 -39 30 -50 52 -52 33 -4 67 22 67 49 0 10 -5 30 -12 44
-14 30 -5 42 37 51 28 5 31 3 47 -40 l17 -46 -40 -85 c-49 -107 -50 -136 -7
-168 46 -33 136 -69 157 -62 22 7 41 47 35 72 -3 11 -25 29 -49 41 l-44 21 22
48 c12 26 26 54 31 62 11 17 8 24 77 -174 61 -174 90 -205 144 -151 29 29 27
42 -40 218 -36 98 -46 134 -40 155 5 15 9 34 11 42 1 7 7 18 13 24 6 6 12 20
12 32 1 16 2 17 6 3 4 -16 22 -18 204 -18 l199 0 0 -175 0 -175 275 0 275 0 0
155 0 155 120 0 120 0 0 -165 0 -165 283 2 282 3 3 169 c2 142 5 173 19 188
15 17 15 23 4 51 -24 61 -24 61 25 85 25 13 48 21 50 20 2 -2 -17 -71 -41
-153 -25 -83 -42 -158 -39 -167 6 -19 41 -32 71 -26 19 3 29 27 84 206 18 58
37 102 44 102 7 0 18 7 25 15 7 8 19 15 28 15 8 0 23 10 34 22 26 30 17 75
-20 105 -31 26 -25 28 43 9 85 -22 110 -8 139 78 22 69 20 93 -9 112 -21 14
-31 15 -51 6 -21 -10 -29 -23 -49 -79 -3 -9 -15 -8 -50 3 l-45 16 20 25 c47
60 8 143 -68 143 -24 0 -45 -7 -55 -18z m90 -6 c19 -6 35 -31 38 -61 3 -21
-26 -64 -46 -70 -28 -9 -16 -19 58 -43 70 -23 72 -22 87 40 4 18 15 30 31 34
49 12 56 -14 28 -104 -23 -72 -40 -80 -127 -54 l-67 20 -8 -21 c-4 -12 -39
-123 -77 -245 -71 -230 -83 -254 -120 -228 -18 13 -16 21 33 182 28 93 47 170
43 172 -5 2 -31 -8 -59 -22 -28 -14 -53 -26 -56 -26 -3 0 -5 17 -5 38 0 34 4
40 33 54 28 13 36 25 47 65 7 26 13 52 14 57 1 11 -83 38 -95 31 -4 -3 -10
-19 -14 -35 -9 -39 -38 -56 -59 -34 -20 20 -20 22 5 89 28 76 43 82 140 54 43
-12 81 -20 84 -17 3 3 0 17 -6 31 -15 33 2 80 34 94 24 11 30 11 64 -1z
m-1457 -131 l0 -125 -63 0 c-59 0 -65 -2 -85 -30 -34 -46 -65 -40 -108 20 -20
28 -44 55 -54 60 -35 19 -75 11 -105 -20 -24 -25 -36 -30 -77 -30 l-48 0 0
125 0 125 270 0 270 0 0 -125z m519 50 c-22 -119 -92 -187 -216 -209 l-33 -5
0 129 0 130 129 0 128 0 -8 -45z m301 -115 l0 -160 -90 0 -90 0 0 -115 0 -115
-185 0 -185 0 0 129 0 128 49 6 c120 14 217 113 236 240 l7 47 129 0 129 0 0
-160z m-1422 22 c18 -12 52 -106 52 -147 0 -39 -18 -54 -85 -75 -74 -23 -75
-24 -60 -72 7 -24 41 -117 75 -208 34 -91 72 -196 85 -233 23 -68 23 -69 4
-88 -16 -16 -23 -17 -40 -9 -11 6 -22 17 -23 23 -17 58 -131 347 -138 347 -9
0 -78 -145 -78 -165 0 -7 18 -20 39 -28 54 -22 69 -48 44 -75 -17 -18 -38 -15
-96 14 -90 46 -94 63 -38 183 l39 84 -22 61 c-24 67 -30 69 -94 39 -30 -13
-33 -18 -27 -41 12 -50 10 -74 -7 -86 -28 -18 -49 4 -74 74 -31 91 -21 108 91
151 47 17 88 35 90 39 3 4 -8 13 -24 20 -29 12 -51 46 -51 81 0 54 58 91 109
70 41 -18 70 -98 41 -116 -5 -3 -10 -12 -10 -20 0 -11 17 -8 78 13 42 15 79
28 81 30 3 1 -2 24 -11 50 -22 70 4 113 50 84z m271 -61 c10 -6 30 -28 46 -51
34 -48 77 -74 111 -66 l24 6 0 -100 0 -100 -196 0 -195 0 4 93 c3 50 8 109 12
130 7 37 7 37 57 37 43 0 53 4 75 30 27 32 35 35 62 21z m326 -76 c0 -17 8
-21 55 -25 l55 -5 3 -72 3 -73 -56 0 -55 0 0 -55 0 -55 -70 0 -70 0 0 130 c0
92 3 130 12 130 6 0 8 3 5 7 -4 3 1 15 10 25 25 27 108 22 108 -7z m1499 -10
c12 -12 13 -22 4 -45 -5 -17 -17 -30 -26 -30 -8 0 -24 -7 -34 -16 -16 -15 -16
-12 3 45 22 65 28 70 53 46z m-1234 -145 l0 -130 -55 0 -55 0 0 130 0 130 55
0 55 0 0 -130z m642 58 c2 -31 8 -44 21 -46 14 -3 17 4 17 42 l0 46 101 0 102
0 -27 -21 c-15 -12 -26 -30 -26 -45 0 -33 57 -143 78 -151 46 -17 35 -43 -19
-43 -57 0 -54 -28 4 -32 l42 -3 0 -125 0 -125 -127 -3 -128 -3 0 46 c0 38 -3
45 -20 45 -17 0 -20 -7 -20 -45 l0 -45 -125 0 -125 0 0 130 0 130 40 0 c29 0
40 4 40 15 0 11 -11 15 -40 15 l-40 0 0 130 0 130 124 0 125 0 3 -42z m294 5
c-8 -46 -8 -57 0 -109 10 -72 -29 -70 -64 2 -33 68 -30 95 18 127 41 28 53 22
46 -20z m-1747 -50 c0 -46 -3 -61 -8 -48 -15 35 -44 53 -84 51 -20 0 -36 3
-34 8 2 7 101 53 120 55 4 1 7 -29 6 -66z m-39 -42 c14 -28 12 -57 -5 -71 -8
-7 -15 -22 -16 -34 -1 -15 -4 -11 -13 14 -6 19 -14 40 -17 45 -3 6 -9 22 -13
38 -6 25 -4 27 23 27 20 0 34 -7 41 -19z m1807 -53 c-3 -7 -5 -2 -5 12 0 14 2
19 5 13 2 -7 2 -19 0 -25z m-1109 -215 l-3 -128 -122 -3 -123 -3 0 131 0 130
125 0 126 0 -3 -127z m282 -3 l0 -130 -120 0 -120 0 0 75 0 75 55 0 55 0 0 55
0 55 65 0 65 0 0 -130z"/>
<path d="M2676 1313 c-4 -9 -1 -23 7 -30 11 -11 16 -11 32 1 16 12 17 16 6 30
-17 21 -37 20 -45 -1z"/>
<path d="M683 1193 c-18 -7 -16 -50 2 -57 14 -5 45 17 45 33 0 9 -22 31 -29
30 -4 0 -12 -3 -18 -6z"/>
<path d="M2339 543 l-24 -28 28 24 c15 14 27 26 27 28 0 8 -8 1 -31 -24z"/>
<path d="M644 533 l20 -24 -67 -67 -67 -67 57 -58 58 -57 67 67 68 67 68 -67
67 -67 58 57 57 58 -67 67 -67 67 20 23 19 23 -22 -19 c-13 -11 -23 -26 -23
-34 0 -12 -17 -14 -104 -10 -99 4 -105 6 -132 34 -16 17 -20 20 -10 7z"/>
<path d="M2125 531 c-15 -16 -27 -32 -26 -37 2 -11 192 -207 194 -202 1 2 31
35 67 73 41 43 50 56 25 35 l-40 -34 -3 56 c-3 49 -6 57 -30 69 -15 7 -38 22
-51 34 -13 11 -21 15 -18 8 4 -6 -11 -3 -32 8 -52 25 -54 24 -86 -10z"/>
</g>
</svg>
